<svg xmlns="http://www.w3.org/2000/svg" xmlns:xlink="http://www.w3.org/1999/xlink" width="176.849" height="40.716" viewBox="0 0 176.849 40.716">
  <defs>
    <linearGradient id="linear-gradient" x1="4.775" y1="8.052" x2="5.482" y2="7.345" gradientUnits="objectBoundingBox">
      <stop offset="0" stop-color="#151965"/>
      <stop offset="0.169" stop-color="#171b6a"/>
      <stop offset="0.373" stop-color="#1e2278"/>
      <stop offset="0.595" stop-color="#292f91"/>
      <stop offset="0.828" stop-color="#3940b3"/>
      <stop offset="1" stop-color="#474fd1"/>
    </linearGradient>
    <linearGradient id="linear-gradient-2" x1="22.213" y1="39.845" x2="22.902" y2="38.586" gradientUnits="objectBoundingBox">
      <stop offset="0" stop-color="#593f00"/>
      <stop offset="0.167" stop-color="#855e00"/>
      <stop offset="0.355" stop-color="#b07c00"/>
      <stop offset="0.537" stop-color="#d29400"/>
      <stop offset="0.71" stop-color="#eba500"/>
      <stop offset="0.868" stop-color="#f9af00"/>
      <stop offset="1" stop-color="#ffb300"/>
    </linearGradient>
  </defs>
  <g id="Grupo_1574" data-name="Grupo 1574" transform="translate(-110.075 -32.642)">
    <g id="Grupo_1125" data-name="Grupo 1125" transform="translate(151.089 37.594)">
      <path id="Trazado_5285" data-name="Trazado 5285" d="M488.354-3770.3H484.73v-4.32h3.624v-4.426l3.488-4.031a3.7,3.7,0,0,1,.522.391,3.967,3.967,0,0,1,1.115,1.774v6.291h5.381v4.32h-5.381l-.147,5.331a4.574,4.574,0,0,0,.13,1.471,5.833,5.833,0,0,0,3.11,3.483,7.559,7.559,0,0,0,3.706.819q-.085,2.375-.17,4.75a11.216,11.216,0,0,1-4.534-.48,11.028,11.028,0,0,1-3.634-1.975,10.133,10.133,0,0,1-3.285-4.733,20.971,20.971,0,0,1-.352-5.308C488.294-3768.351,488.325-3769.513,488.354-3770.3Z" transform="translate(-484.73 3783.076)" fill="#f6f5f5"/>
      <path id="Trazado_5286" data-name="Trazado 5286" d="M1798.107-3770.3h-3.624v-4.32h3.624v-4.426l3.488-4.031a3.7,3.7,0,0,1,.521.391,3.968,3.968,0,0,1,1.115,1.774v6.291h5.381v4.32h-5.381l-.147,5.331a4.582,4.582,0,0,0,.13,1.471,5.834,5.834,0,0,0,3.11,3.483,7.559,7.559,0,0,0,3.706.819q-.085,2.375-.17,4.75a11.216,11.216,0,0,1-4.534-.48,11.025,11.025,0,0,1-3.634-1.975,10.131,10.131,0,0,1-3.285-4.733,20.973,20.973,0,0,1-.353-5.308C1798.047-3768.351,1798.078-3769.513,1798.107-3770.3Z" transform="translate(-1674.197 3783.076)" fill="#f6f5f5"/>
      <path id="Trazado_5287" data-name="Trazado 5287" d="M665.948-3691.8h5.088l4.466,12.153,4.613-12.153h5.125q-1.977,5.106-3.624,9.554c-1.208,3.185-2.343,6.077-3.331,8.712h.036l-3.441,9.115h-5.308l3.258-8.493Z" transform="translate(-649.305 3700.18)" fill="#f6f5f5"/>
      <path id="Trazado_5288" data-name="Trazado 5288" d="M906.5-3690.284a6.663,6.663,0,0,1,5.637-2.708,8.191,8.191,0,0,1,2.306.329v3.808a6.774,6.774,0,0,0-1.757-.257,6.758,6.758,0,0,0-2.526.476,4.551,4.551,0,0,0-2.05,1.574,6.644,6.644,0,0,0-1.281,3,22.135,22.135,0,0,0-.293,3.551l-.036,1.025v6.736h-5.125v-20.207H906.5Z" transform="translate(-863.11 3701.265)" fill="#f6f5f5"/>
      <path id="Trazado_5289" data-name="Trazado 5289" d="M1075.286-3682.2a8.38,8.38,0,0,1-.146,1.647h-15.814a4.494,4.494,0,0,0,1.721,2.782,5.316,5.316,0,0,0,3.587,1.208,5.026,5.026,0,0,0,2.965-.952,7.392,7.392,0,0,0,1.72-1.867l4.246,2.745a11.073,11.073,0,0,1-3.331,3.148,9.956,9.956,0,0,1-5.6,1.684,9.958,9.958,0,0,1-5.417-1.5,11.251,11.251,0,0,1-3.807-3.844,9.81,9.81,0,0,1-1.391-5.052,11.88,11.88,0,0,1,.293-2.526,10.546,10.546,0,0,1,3.807-5.637,10.055,10.055,0,0,1,6.516-2.233A10.633,10.633,0,0,1,1075.286-3682.2Zm-15.594-2.709h9.7a5.089,5.089,0,0,0-4.759-2.929,5.655,5.655,0,0,0-3.221.878A4.267,4.267,0,0,0,1059.692-3684.908Z" transform="translate(-1001.735 3700.905)" fill="#f6f5f5"/>
      <path id="Trazado_5290" data-name="Trazado 5290" d="M1322.748-3754.983a10.848,10.848,0,0,1-12.432-2.6,9.54,9.54,0,0,1-2.025-4.442q-.058-10.526-.116-21.052h5.125v9.847a13.412,13.412,0,0,1,5.894-1.574c4.888,0,9.894,4.634,9.957,10.25A10.635,10.635,0,0,1,1322.748-3754.983Zm-9.448-9.167a5.336,5.336,0,0,0,5.308,5.417,5.348,5.348,0,0,0,5.308-5.637,5.326,5.326,0,0,0-5.308-5.637,5.3,5.3,0,0,0-5.308,5.38Z" transform="translate(-1232.551 3783.076)" fill="#f6f5f5"/>
      <path id="Trazado_5291" data-name="Trazado 5291" d="M1556.221-3683.07a10.6,10.6,0,0,1,10.542-10.323,10.6,10.6,0,0,1,10.543,10.323,10.605,10.605,0,0,1-10.543,10.36A10.605,10.605,0,0,1,1556.221-3683.07Zm5.125,0a5.391,5.391,0,0,0,5.418,5.637,5.4,5.4,0,0,0,5.454-5.637,5.389,5.389,0,0,0-5.454-5.6A5.381,5.381,0,0,0,1561.346-3683.07Z" transform="translate(-1457.817 3701.63)" fill="#f6f5f5"/>
    </g>
    <g id="Grupo_1128" data-name="Grupo 1128" transform="translate(110.075 32.642)">
      <g id="Grupo_1126" data-name="Grupo 1126" transform="translate(0 3.823)">
        <path id="Trazado_5292" data-name="Trazado 5292" d="M70.619-3784.776a6.4,6.4,0,0,1-5.021,3.368,11,11,0,0,1,.381,2.871,11,11,0,0,1-11,11,11,11,0,0,1-11-11,11,11,0,0,1,11-11,10.962,10.962,0,0,1,3.71.644,6.39,6.39,0,0,1,3.755-4.736,16.844,16.844,0,0,0-4.635-1.505,16.833,16.833,0,0,0-19.423,13.764,16.833,16.833,0,0,0,13.764,19.423,16.833,16.833,0,0,0,19.423-13.764A16.752,16.752,0,0,0,70.619-3784.776Z" transform="translate(-38.148 3795.373)" fill="url(#linear-gradient)"/>
      </g>
      <path id="Trazado_5293" data-name="Trazado 5293" d="M293.7-3749.038a3.311,3.311,0,0,0-.412-.025,3.355,3.355,0,0,0-3.325,2.947l-.408,3.33,3.332.413a3.56,3.56,0,0,0,.409.02,3.307,3.307,0,0,0,3.325-2.948A3.354,3.354,0,0,0,293.7-3749.038Z" transform="translate(-266.469 3757.139)" fill="url(#linear-gradient-2)"/>
      <circle id="Elipse_5" data-name="Elipse 5" cx="5.557" cy="5.557" r="5.557" transform="translate(11.258 15.102)" fill="#151965"/>
      <g id="Grupo_1127" data-name="Grupo 1127" transform="translate(28.868)">
        <path id="Trazado_5294" data-name="Trazado 5294" d="M361.95-3835.467a8.246,8.246,0,0,1,6.946,9.042.152.152,0,0,0,.131.168l1.234.163a.154.154,0,0,0,.172-.134A9.8,9.8,0,0,0,362.157-3837a.154.154,0,0,0-.174.132l-.163,1.234A.152.152,0,0,0,361.95-3835.467Z" transform="translate(-360.962 3837.005)" fill="#ffb300"/>
        <path id="Trazado_5295" data-name="Trazado 5295" d="M352.607-3790.093a4.162,4.162,0,0,1,3.434,4.463.153.153,0,0,0,.132.167l1.234.163a.153.153,0,0,0,.172-.135,5.712,5.712,0,0,0-4.763-6.194.152.152,0,0,0-.174.131l-.163,1.234A.154.154,0,0,0,352.607-3790.093Z" transform="translate(-352.478 3795.798)" fill="#ffb300"/>
      </g>
    </g>
  </g>
</svg>
