<svg id="Layer_1" data-name="Layer 1" xmlns="http://www.w3.org/2000/svg" viewBox="0 0 184.54 404.04"><defs><style>.cls-1{fill:#85878a;}.cls-2,.cls-8{fill:none;}.cls-2{stroke:#bdbebf;stroke-linejoin:round;stroke-width:6px;}.cls-3,.cls-4,.cls-9{isolation:isolate;}.cls-4,.cls-9{font-size:14px;}.cls-4{fill:#535353;font-family:SFProDisplay-Bold, SF Pro Display;font-weight:700;}.cls-5{letter-spacing:-0.02em;}.cls-6{letter-spacing:-0.02em;}.cls-7{fill:#bdbebf;}.cls-8{stroke:#85878a;stroke-width:15px;}.cls-9{fill:#fff;font-family:SFProDisplay-Semibold, SF Pro Display;font-weight:600;}</style></defs><g id="Grupo_1581" data-name="Grupo 1581"><g id="Rectángulo_506" data-name="Rectángulo 506"><rect class="cls-1" x="32.24" y="329.73" width="120.07" height="36.81" rx="10"/><rect class="cls-2" x="29.24" y="326.73" width="126.07" height="42.81" rx="13"/></g><g id="Tire_1" data-name="Tire 1" class="cls-3"><text class="cls-4" transform="translate(73 355.12)"><tspan class="cls-5">T</tspan><tspan x="8.11" y="0">i</tspan><tspan class="cls-6" x="11.47" y="0">r</tspan><tspan x="16.32" y="0">e 1</tspan></text></g><g id="Trazado_5392" data-name="Trazado 5392"><path class="cls-1" d="M142.31,80.31H42.24a13,13,0,0,1-13-13V50.5a13,13,0,0,1,13-13H142.31a13,13,0,0,1,13,13V67.31a13,13,0,0,1-13,13Z"/><path class="cls-7" d="M42.24,40.5a10,10,0,0,0-10,10V67.31a10,10,0,0,0,10,10H142.31a10,10,0,0,0,10-10V50.5a10,10,0,0,0-10-10H42.24m0-6H142.31a16,16,0,0,1,16,16V67.31a16,16,0,0,1-16,16H42.24a16,16,0,0,1-16-16V50.5A16,16,0,0,1,42.24,34.5Z"/></g><g id="Tire_4" data-name="Tire 4" class="cls-3"><text class="cls-4" transform="translate(70.82 63.89)"><tspan class="cls-5">T</tspan><tspan x="8.11" y="0">i</tspan><tspan class="cls-6" x="11.47" y="0">r</tspan><tspan x="16.32" y="0">e 4</tspan></text></g><g id="Axle"><line id="Línea_46" data-name="Línea 46" class="cls-8" x1="92.27" y1="75.81" x2="92.27" y2="328.23"/><g id="Eje_1" data-name="Eje 1" class="cls-3"><text class="cls-9" transform="translate(97.28 221.52) rotate(-90)">Eje 2</text></g></g><g id="Grupo_1371" data-name="Grupo 1371"><g id="Rectángulo_506-2" data-name="Rectángulo 506-2"><rect class="cls-1" x="32.24" y="94.84" width="120.07" height="36.81" rx="10"/><rect class="cls-2" x="29.24" y="91.84" width="126.07" height="42.81" rx="13"/></g><g id="Rectángulo_506-3" data-name="Rectángulo 506-3"><rect class="cls-1" x="32.24" y="275.39" width="120.07" height="36.81" rx="10"/><rect class="cls-2" x="29.24" y="272.39" width="126.07" height="42.81" rx="13"/></g><g id="Tire_3" data-name="Tire 3" class="cls-3"><text class="cls-4" transform="translate(71.95 117.24)"><tspan class="cls-5">T</tspan><tspan x="8.11" y="0">i</tspan><tspan class="cls-6" x="11.47" y="0">r</tspan><tspan x="16.32" y="0">e 3</tspan></text></g></g><g id="Tire_2" data-name="Tire 2" class="cls-3"><text class="cls-4" transform="translate(73.12 298.12)"><tspan class="cls-5">T</tspan><tspan x="8.11" y="0">i</tspan><tspan class="cls-6" x="11.47" y="0">r</tspan><tspan x="16.32" y="0">e 2</tspan></text></g></g></svg>