<svg id="Layer_1" data-name="Layer 1" xmlns="http://www.w3.org/2000/svg" viewBox="0 0 146.16 138.41"><defs><style>.cls-repuesto1-1{fill:#85878a;}.cls-repuesto1-2{fill:#bdbebf;}.cls-repuesto1-3,.cls-repuesto1-4{isolation:isolate;}.cls-repuesto1-4{font-size:14px;fill:#dbdbdc;font-family:SFProDisplay-Semibold, SF Pro Display;font-weight:600;}.cls-repuesto1-5{letter-spacing:-0.02em;}.cls-repuesto1-6{letter-spacing:-0.02em;}.cls-repuesto1-7{letter-spacing:0em;}</style></defs><g id="Trazado_5393" data-name="Trazado 5393"><path class="cls-repuesto1-1" d="M73.08,101.13a31.8,31.8,0,1,1,12.43-2.51A31.84,31.84,0,0,1,73.08,101.13Z"/><path class="cls-repuesto1-2" d="M73.08,40.28A28.93,28.93,0,1,0,102,69.2,28.92,28.92,0,0,0,73.08,40.28m0-6A34.93,34.93,0,1,1,38.16,69.2,35,35,0,0,1,73.08,34.28Z"/></g><g id="Tire_1R" data-name="Tire 1R" class="cls-repuesto1-3"><text class="cls-repuesto1-4" transform="translate(61.05 66.07)"><tspan class="cls-repuesto1-5">T</tspan><tspan x="8" y="0">i</tspan><tspan class="cls-repuesto1-6" x="11.17" y="0">r</tspan><tspan x="15.71" y="0">e </tspan></text><text class="cls-repuesto1-4" transform="translate(65.05 82.07)"><tspan class="cls-repuesto1-7">1</tspan><tspan x="6.51" y="0">R</tspan></text></g></svg>
